# xmcd
#
# Track frame offsets: 
#        150
#        30520
#        46768
#        65913
#        84880
#        105651
#        126162
#        139367
#        164998
#        183633
#        203144
#
# Disc length: 2975 seconds
#
# Revision: 0
# Processed by: cddbd v1.5.2PL0 Copyright (c) Steve Scherf et al.
# Submitted via: ExactAudioCopy v0.95a5
#
DISCID=a00b9d0b
DTITLE=Boogie Bottles - Wanted
DYEAR=2009
DGENRE=Russian Blues
TTITLE0=Call Me The Breeze
TTITLE1=I'm The One
TTITLE2=Is You Is Or Is You Ain't Me Babe
TTITLE3=I Got Mojo Working
TTITLE4=Give Me Back My Wig
TTITLE5=Messin' With The Kid
TTITLE6=Drink Drank Drunk
TTITLE7=Who's Been Talkin'
TTITLE8=What'd  I Say
TTITLE9=Yesterday Is Here
TTITLE10=Jokey Full Of Bourbon
EXTD=
EXTT0=
EXTT1=
EXTT2=
EXTT3=
EXTT4=
EXTT5=
EXTT6=
EXTT7=
EXTT8=
EXTT9=
EXTT10=
PLAYORDER=
